<svg width="16" height="16" viewBox="0 0 16 16" fill="none" xmlns="http://www.w3.org/2000/svg">
<rect width="16" height="16" fill="#FFEBAF"/>
<path fill-rule="evenodd" clip-rule="evenodd" d="M12.1421 11.5263V10.9579H12.6632C12.7413 10.9579 12.8144 10.9424 12.8806 10.915L13.0983 11.44C12.9643 11.4956 12.8173 11.5263 12.6632 11.5263H12.1421ZM13.8 4.65789H13.2316V4.13684C13.2316 4.05872 13.2161 3.98564 13.1887 3.91941L13.7137 3.70167C13.7693 3.83571 13.8 3.9827 13.8 4.13684V4.65789ZM6.93158 3H6.41052C6.25638 3 6.1094 3.03068 5.97535 3.08626L6.19309 3.61133C6.25932 3.58386 6.3324 3.56842 6.41052 3.56842H6.93158V3ZM5.27368 4.65789H5.8421V4.13684C5.8421 4.05872 5.85755 3.98564 5.88501 3.91941L5.35995 3.70167C5.30436 3.83571 5.27368 3.9827 5.27368 4.13684V4.65789ZM7.97368 3V3.56842H9.01578V3H7.97368ZM10.0579 3V3.56842H11.1V3H10.0579ZM12.1421 3V3.56842H12.6632C12.7413 3.56842 12.8144 3.58386 12.8806 3.61133L13.0983 3.08626C12.9643 3.03068 12.8173 3 12.6632 3H12.1421ZM13.8 5.7H13.2316V6.7421H13.8V5.7ZM13.8 7.78421H13.2316V8.82631H13.8V7.78421ZM13.8 9.86842H13.2316V10.3895C13.2316 10.4676 13.2161 10.5407 13.1887 10.6069L13.7137 10.8246C13.7693 10.6906 13.8 10.5436 13.8 10.3895V9.86842Z" fill="black" fill-opacity="0.54"/>
<rect x="3.5" y="5.77368" width="7.52631" height="7.52631" rx="1.5" stroke="black" stroke-opacity="0.54"/>
</svg>
