<svg width="250" height="140" viewBox="0 0 250 140" fill="none" xmlns="http://www.w3.org/2000/svg">
<rect x="0" y="0" width="250" height="140" fill="#F5F5F5" stroke="#BFBFBF" stroke-width="2"/>
<path d="M145.5 56.625H139.125L137.606 52.3688C137.501 52.0775 137.309 51.8258 137.056 51.6479C136.802 51.47 136.5 51.3747 136.191 51.375H121.809C121.177 51.375 120.609 51.7734 120.398 52.3688L118.875 56.625H112.5C110.428 56.625 108.75 58.3031 108.75 60.375V81.75C108.75 83.8219 110.428 85.5 112.5 85.5H145.5C147.572 85.5 149.25 83.8219 149.25 81.75V60.375C149.25 58.3031 147.572 56.625 145.5 56.625ZM145.875 81.75C145.875 81.9562 145.706 82.125 145.5 82.125H112.5C112.294 82.125 112.125 81.9562 112.125 81.75V60.375C112.125 60.1688 112.294 60 112.5 60H121.252L122.053 57.7594L123.127 54.75H134.869L135.942 57.7594L136.744 60H145.5C145.706 60 145.875 60.1688 145.875 60.375V81.75ZM129 63C124.856 63 121.5 66.3562 121.5 70.5C121.5 74.6437 124.856 78 129 78C133.144 78 136.5 74.6437 136.5 70.5C136.5 66.3562 133.144 63 129 63ZM129 75C126.516 75 124.5 72.9844 124.5 70.5C124.5 68.0156 126.516 66 129 66C131.484 66 133.5 68.0156 133.5 70.5C133.5 72.9844 131.484 75 129 75Z" fill="#BFBFBF"/>
</svg>
