<svg width="14" height="14" viewBox="0 0 14 14" fill="none" xmlns="http://www.w3.org/2000/svg">
<path d="M13.4219 3.43144C13.2124 2.9465 12.9104 2.50705 12.5328 2.13769C12.1549 1.76723 11.7093 1.47284 11.2203 1.27051C10.7132 1.05987 10.1694 0.952055 9.62031 0.953319C8.85 0.953319 8.09844 1.16426 7.44531 1.56269C7.28906 1.65801 7.14062 1.76269 7 1.87676C6.85938 1.76269 6.71094 1.65801 6.55469 1.56269C5.90156 1.16426 5.15 0.953319 4.37969 0.953319C3.825 0.953319 3.2875 1.05957 2.77969 1.27051C2.28906 1.47363 1.84687 1.76582 1.46719 2.13769C1.08906 2.50664 0.786997 2.94619 0.578125 3.43144C0.360938 3.93613 0.25 4.47207 0.25 5.02363C0.25 5.54394 0.35625 6.08613 0.567188 6.63769C0.74375 7.09863 0.996875 7.57676 1.32031 8.05957C1.83281 8.82363 2.5375 9.62051 3.4125 10.4283C4.8625 11.7674 6.29844 12.6924 6.35938 12.7299L6.72969 12.9674C6.89375 13.0721 7.10469 13.0721 7.26875 12.9674L7.63906 12.7299C7.7 12.6908 9.13437 11.7674 10.5859 10.4283C11.4609 9.62051 12.1656 8.82363 12.6781 8.05957C13.0016 7.57676 13.2562 7.09863 13.4312 6.63769C13.6422 6.08613 13.7484 5.54394 13.7484 5.02363C13.75 4.47207 13.6391 3.93613 13.4219 3.43144ZM7 11.7314C7 11.7314 1.4375 8.16738 1.4375 5.02363C1.4375 3.43144 2.75469 2.14082 4.37969 2.14082C5.52187 2.14082 6.5125 2.77832 7 3.70957C7.4875 2.77832 8.47813 2.14082 9.62031 2.14082C11.2453 2.14082 12.5625 3.43144 12.5625 5.02363C12.5625 8.16738 7 11.7314 7 11.7314Z" fill="#096DD9"/>
</svg>
