<svg width="34" height="26" viewBox="0 0 34 26" fill="none" xmlns="http://www.w3.org/2000/svg">
<path d="M33.298 25.75H0.70987C0.116553 25.75 -0.211099 25.0821 0.151976 24.6311L8.98974 13.5985C9.05601 13.5155 9.14068 13.4485 9.23734 13.4023C9.33401 13.3562 9.44011 13.3322 9.54764 13.3322C9.65516 13.3322 9.76127 13.3562 9.85793 13.4023C9.95459 13.4485 10.0393 13.5155 10.1055 13.5985L13.7451 18.1434L20.6347 9.53929C20.701 9.45635 20.7856 9.38928 20.8823 9.34315C20.979 9.29703 21.0851 9.27306 21.1926 9.27306C21.3001 9.27306 21.4062 9.29703 21.5029 9.34315C21.5996 9.38928 21.6842 9.45635 21.7505 9.53929L33.8382 24.6311C34.219 25.0821 33.8825 25.75 33.298 25.75Z" fill="#BFBFBF"/>
<path d="M7.08582 0.25C9.04288 0.25 10.628 1.80255 10.628 3.71939C10.628 5.63622 9.04288 7.18878 7.08582 7.18878C5.12875 7.18878 3.54362 5.63622 3.54362 3.71939C3.54362 1.80255 5.12875 0.25 7.08582 0.25Z" fill="#BFBFBF"/>
</svg>
