<svg width="14" height="13" viewBox="0 0 14 13" fill="none" xmlns="http://www.w3.org/2000/svg">
<path d="M13.189 4.51708L9.22178 3.94052L7.44834 0.345208C7.39991 0.246771 7.32022 0.167083 7.22178 0.118646C6.97491 -0.00322907 6.67491 0.0983334 6.55147 0.345208L4.77803 3.94052L0.810845 4.51708C0.70147 4.53271 0.60147 4.58427 0.524907 4.6624C0.432347 4.75753 0.381343 4.88552 0.383101 5.01824C0.384859 5.15096 0.439235 5.27756 0.534282 5.37021L3.40459 8.16864L2.72647 12.1202C2.71057 12.2121 2.72074 12.3067 2.75583 12.3931C2.79092 12.4795 2.84953 12.5544 2.92501 12.6092C3.00049 12.6641 3.08982 12.6966 3.18288 12.7033C3.27593 12.7099 3.36897 12.6903 3.45147 12.6468L6.99991 10.7811L10.5483 12.6468C10.6452 12.6983 10.7577 12.7155 10.8655 12.6968C11.1374 12.6499 11.3202 12.3921 11.2733 12.1202L10.5952 8.16864L13.4655 5.37021C13.5437 5.29365 13.5952 5.19365 13.6108 5.08427C13.653 4.81083 13.4624 4.55771 13.189 4.51708Z" fill="#FADB14"/>
</svg>
